<svg width="244" height="249" viewBox="0 0 244 249" fill="none" xmlns="http://www.w3.org/2000/svg">
<path fill-rule="evenodd" clip-rule="evenodd" d="M4.39763 183.323C35.5842 200.805 75.0823 199.828 105.999 183.323C108.554 181.782 72.2224 177.781 55.03 177.781C24.3087 177.781 3.83906 180.834 4.39763 183.323V183.323Z" fill="url(#paint0_linear_1123_312)" stroke="#5D5D5D" stroke-width="0.235294"/>
<path fill-rule="evenodd" clip-rule="evenodd" d="M77.207 226.336C77.207 226.336 76.9241 221.533 84.2453 221.429C91.5666 221.325 155.563 221.429 160.34 221.429C165.117 221.429 166.307 224.697 166.265 226.358C166.164 230.44 133.247 238.949 133.236 238.771L89.6196 235.276C85.4821 232.296 79.6236 232.356 77.2067 226.336L77.207 226.336Z" fill="url(#paint1_linear_1123_312)" stroke="#444444" stroke-width="0.235294"/>
<path fill-rule="evenodd" clip-rule="evenodd" d="M77.2367 225.773V235.108C76.9218 244.956 166.257 245.442 166.236 235.108V225.773C166.321 236.163 77.0573 236.179 77.2367 225.773Z" fill="url(#paint2_linear_1123_312)" stroke="url(#paint3_linear_1123_312)" stroke-width="0.235294"/>
<path fill-rule="evenodd" clip-rule="evenodd" d="M83.0474 219.363C83.1652 217.662 95.0979 213.25 120.516 213.25C146.071 213.25 160.425 216.762 160.425 219.492C160.425 220.152 152.568 225.513 152.568 225.513L119.708 228.67L83.5436 222.796L83.048 219.363L83.0474 219.363Z" fill="#979797" stroke="#444444" stroke-width="0.235294"/>
<path fill-rule="evenodd" clip-rule="evenodd" d="M83.0593 219.121V225.892C83.201 232.1 160.431 232.972 160.412 225.892V219.121C160.382 225.826 83.1096 225.734 83.0593 219.121V219.121Z" fill="url(#paint4_linear_1123_312)" stroke="url(#paint5_linear_1123_312)" stroke-width="0.235294"/>
<path d="M139.104 219.804C139.104 219.804 128.184 218.655 125.598 216.93C123.012 215.206 123.586 215.062 120.928 215.062C118.27 215.062 118.845 215.206 116.259 216.93C113.672 218.655 102.752 219.804 102.752 219.804" stroke="url(#paint6_linear_1123_312)" stroke-width="0.235294" stroke-linecap="round"/>
<path fill-rule="evenodd" clip-rule="evenodd" d="M112.347 209.59L131.122 209.618C131.261 210.352 125.137 215.746 123.144 215.641L119.298 215.618C117.038 215.689 112.326 209.892 112.347 209.59L112.347 209.59Z" fill="#7C7C7C" stroke="url(#paint7_linear_1123_312)" stroke-width="0.235294" stroke-linejoin="round"/>
<path d="M121.466 27.1211C121.163 27.1211 120.856 27.135 120.568 27.157C120.225 27.1832 119.913 27.2462 119.598 27.3007C117.723 27.6257 116.401 28.402 116.401 29.3482V34.3413C110.727 31.051 103.713 29.2764 98.6923 29.2764C91.9867 29.2764 88.4951 30.0676 80.4443 34.5209C73.75 38.224 71.899 39.8115 67.2253 38.7956C62.5517 37.7797 60.3242 35.3697 57.8858 34.5569C55.4474 33.7441 51.793 36.3634 51.5637 37.1432C51.3097 38.0068 50.5096 36.9266 50.3064 36.317C50.1031 35.7074 45.5052 38.3194 45.7084 39.945C45.9117 41.5706 49.8652 46.0258 50.45 44.1119C51.0089 42.2831 51.7863 42.1075 52.4975 42.8187C53.2159 43.5372 55.8628 45.0029 56.2692 47.8477C56.6755 50.6925 55.2377 51.4983 54.2217 50.6855C53.2058 49.8727 52.8084 49.4867 52.6053 48.6739C52.4022 47.8611 48.1521 49.8963 48.7617 50.506C49.3713 51.1157 50.5722 54.9489 51.9946 55.3554C53.417 55.7619 53.4314 57.5959 53.4314 58.4087C53.4314 59.2214 55.8741 59.0429 55.8741 58.8397C55.8741 58.6365 56.0537 55.966 56.0537 55.966C56.0537 55.966 60.747 55.5726 60.5438 49.6797C60.3406 43.7869 57.0739 41.9679 58.4963 41.5615C59.9188 41.1552 67.0202 44.8068 73.1166 45.01C79.2129 45.2132 87.4678 39.1189 98.4408 39.1189C106.583 39.1189 113.406 42.9038 116.401 44.8663V46.842C116.401 47.7882 117.723 48.5645 119.598 48.8895C119.913 48.944 120.226 49.0069 120.568 49.0332C120.856 49.0552 121.163 49.0691 121.466 49.0691H121.861C122.253 49.0691 122.645 49.0694 123.011 49.0332C125.327 48.827 127.07 47.9255 127.07 46.842V44.8663C130.065 42.9038 136.889 39.1189 145.03 39.1189C156.003 39.1189 164.259 45.2132 170.355 45.01C176.45 44.8068 183.552 41.1551 184.975 41.5615C186.398 41.968 183.131 43.7869 182.927 49.6797C182.724 55.5725 187.418 55.966 187.418 55.966C187.418 55.966 187.597 58.6365 187.597 58.8397C187.597 59.0429 190.04 59.2215 190.04 58.4087C190.04 57.5958 190.054 55.7617 191.477 55.3554C192.899 54.9491 194.1 51.1157 194.71 50.506C195.319 49.8963 191.069 47.8613 190.866 48.6739C190.663 49.4866 190.265 49.8727 189.249 50.6855C188.234 51.4983 186.796 50.6926 187.202 47.8477C187.608 45.0028 190.255 43.5372 190.974 42.8187C191.685 42.1075 192.426 42.2831 192.985 44.1119C193.57 46.0258 197.56 41.5706 197.763 39.945C197.966 38.3194 193.368 35.7074 193.165 36.317C192.962 36.9267 192.162 38.0068 191.908 37.1432C191.678 36.3635 188.024 33.7441 185.585 34.5569C183.147 35.3697 180.92 37.7796 176.246 38.7956C171.572 39.8116 169.721 38.224 163.027 34.5209C154.976 30.0676 151.448 29.2764 144.743 29.2764C139.722 29.2764 132.744 31.0511 127.07 34.3413V29.3482C127.07 28.2646 125.327 27.3631 123.011 27.157H122.903C122.617 27.1316 122.306 27.1247 122.005 27.1211H121.466H121.466Z" fill="#808080" stroke="#535353" stroke-width="0.117649" stroke-linecap="round" stroke-linejoin="round"/>
<path d="M55.2273 37.4934C55.2273 37.4934 63.0505 41.7606 70.7717 41.7606C78.4929 41.7606 87.4346 34.2422 97.7971 34.2422C106.741 34.2422 114.6 39.6426 119.157 42.4874" stroke="url(#paint8_linear_1123_312)" stroke-width="0.235294"/>
<path d="M188.243 37.4934C188.243 37.4934 180.419 41.7606 172.698 41.7606C164.977 41.7606 156.035 34.2422 145.673 34.2422C136.729 34.2422 128.87 39.6426 124.313 42.4874" stroke="url(#paint9_linear_1123_312)" stroke-width="0.235294"/>
<path fill-rule="evenodd" clip-rule="evenodd" d="M117.773 27.6847V23.5746C120.629 22.3326 122.843 20.8059 125.698 23.5746V27.2842L117.773 27.6847V27.6847Z" fill="#6B6B6B" stroke="#585858" stroke-width="0.235294"/>
<path d="M121.462 26.7227C121.147 26.7227 120.828 26.7371 120.529 26.76C120.174 26.7871 119.849 26.8524 119.523 26.909C117.576 27.246 116.204 28.0511 116.204 29.0322V47.1732C116.204 48.1544 117.576 48.9594 119.523 49.2964C119.849 49.353 120.174 49.4183 120.529 49.4454C120.828 49.4683 121.147 49.4827 121.462 49.4827H121.872C122.278 49.4827 122.685 49.483 123.065 49.4454C125.469 49.2316 127.278 48.2967 127.278 47.1731V29.0322C127.278 27.9086 125.469 26.9738 123.065 26.7599H122.953C122.656 26.7336 122.334 26.7264 122.021 26.7227H121.462V26.7227Z" fill="url(#paint10_linear_1123_312)" stroke="#535353" stroke-width="0.235294" stroke-linecap="round" stroke-linejoin="round"/>
<path fill-rule="evenodd" clip-rule="evenodd" d="M116.936 206.252V56.5391L126.537 56.4883L126.487 207.266L116.936 206.25L116.936 206.252Z" fill="url(#paint11_linear_1123_312)" stroke="url(#paint12_linear_1123_312)" stroke-width="0.329412"/>
<path fill-rule="evenodd" clip-rule="evenodd" d="M112.347 209.574L131.122 209.546C131.261 208.812 125.137 203.418 123.144 203.523L119.298 203.546C117.038 203.475 112.326 209.272 112.347 209.574L112.347 209.574Z" fill="#7C7C7C" stroke="url(#paint13_linear_1123_312)" stroke-width="0.235294" stroke-linejoin="round"/>
<path fill-rule="evenodd" clip-rule="evenodd" d="M116.707 56.3201H126.766C126.766 56.3201 124.954 53.6055 121.604 53.6055C118.255 53.6055 116.707 56.1859 116.707 56.3201Z" fill="url(#paint14_linear_1123_312)" stroke="#4A4A4A" stroke-width="0.235294" stroke-linecap="round" stroke-linejoin="round"/>
<path fill-rule="evenodd" clip-rule="evenodd" d="M116.707 50.9914H126.766C126.766 50.9914 124.954 48.1055 121.604 48.1055C118.255 48.1055 116.707 50.8487 116.707 50.9914Z" fill="url(#paint15_linear_1123_312)" stroke="#4A4A4A" stroke-width="0.242604" stroke-linecap="round" stroke-linejoin="round"/>
<path fill-rule="evenodd" clip-rule="evenodd" d="M116.707 50.8289H126.766C126.766 50.8289 124.954 53.7148 121.604 53.7148C118.255 53.7148 116.707 50.9716 116.707 50.8289Z" fill="url(#paint16_linear_1123_312)" stroke="#4A4A4A" stroke-width="0.242604" stroke-linecap="round" stroke-linejoin="round"/>
<path fill-rule="evenodd" clip-rule="evenodd" d="M118.976 17.4844V20.5377L118.761 20.6455H118.689C117.505 20.8555 115.848 21.2682 115.312 21.8668C115.098 22.1067 115.154 22.2683 115.312 22.4775C115.628 22.8949 118.407 24.2017 121.527 24.2017H121.922C125.041 24.2017 127.812 22.8951 128.136 22.4775C128.394 22.1459 128.314 22.086 128.136 21.8668C127.8 21.4527 125.935 20.853 124.76 20.6455H124.724L124.472 20.5377V17.4844H118.976H118.976Z" fill="#787878" stroke="#686868" stroke-width="0.235294" stroke-linejoin="round"/>
<path d="M128.358 12.6735C128.358 14.431 127.659 16.1166 126.417 17.3593C125.174 18.602 123.488 19.3002 121.731 19.3002C119.973 19.3002 118.288 18.602 117.045 17.3593C115.802 16.1166 115.104 14.431 115.104 12.6735C115.104 10.916 115.802 9.23052 117.045 7.98778C118.288 6.74504 119.973 6.04688 121.731 6.04688C123.488 6.04688 125.174 6.74504 126.417 7.98778C127.659 9.23052 128.358 10.916 128.358 12.6735V12.6735Z" fill="url(#paint17_radial_1123_312)"/>
<path fill-rule="evenodd" clip-rule="evenodd" d="M187.784 50.7267C187.565 52.6665 187.525 54.6062 187.784 56.546C187.784 56.546 184.12 56.4949 184.12 57.3363C184.12 58.1776 184.579 73.4139 183.258 74.9378C181.937 76.4616 181.102 76.1457 180.492 75.3329C179.883 74.5201 178.073 74.6391 177.87 75.0455C177.667 75.4519 177.221 77.9431 178.517 78.7813C180.324 79.9509 184.827 79.9173 185.234 75.5485C185.64 71.1797 185.629 67.4302 187.317 67.4302C187.927 67.4302 187.892 69.5117 187.892 71.8485C187.892 74.1853 187.688 74.789 187.281 75.2969C186.875 75.8049 186.977 80.6852 187.281 80.6852H190.335C190.64 80.6852 190.741 75.8049 190.335 75.2969C189.928 74.789 189.724 74.1853 189.724 71.8485C189.724 69.5117 189.438 67.4302 190.047 67.4302C191.88 67.4302 191.652 70.7845 192.059 75.1533C192.465 79.5221 196.672 79.6362 198.704 78.925C200.736 78.2138 199.75 75.2815 199.566 74.8659C199.291 74.2439 198.093 74.7715 197.339 75.2251C196.469 75.7492 195.607 76.354 194.286 74.8299C192.965 73.3059 192.849 58.1781 192.849 57.3361C192.849 56.4941 189.509 56.5458 189.509 56.5458C189.424 54.606 189.151 52.6664 189.509 50.7266C188.635 51.2041 188.186 51.0036 187.784 50.7266V50.7267ZM188.718 57.7313C189.693 57.7313 190.478 57.9031 190.478 58.1264V60.8565C190.478 61.0799 189.693 61.2516 188.718 61.2516C187.743 61.2516 186.958 61.0799 186.958 60.8565V58.1264C186.958 57.9031 187.743 57.7313 188.718 57.7313Z" fill="#838383" stroke="#535353" stroke-width="0.188235"/>
<path fill-rule="evenodd" clip-rule="evenodd" d="M138.745 183.323C169.932 200.805 209.43 199.828 240.346 183.323C242.902 181.782 206.57 177.781 189.377 177.781C158.656 177.781 138.186 180.834 138.745 183.323Z" fill="url(#paint18_linear_1123_312)" stroke="#5D5D5D" stroke-width="0.235294"/>
<path d="M190.559 75.082C192.359 83.3167 189.025 80.0035 188.907 81.5965L188.727 195.178" stroke="url(#paint19_linear_1123_312)" stroke-width="0.329412" stroke-linecap="round"/>
<path d="M182.139 75.8203C182.395 75.8979 182.444 76.5287 182.271 77.2044C182.098 77.8802 181.728 78.6008 181.374 79.7473C169.28 116.121 156.051 152.117 143.322 188.273" stroke="url(#paint20_linear_1123_312)" stroke-width="0.329412" stroke-linecap="round"/>
<path fill-rule="evenodd" clip-rule="evenodd" d="M55.7014 50.7267C55.9208 52.6665 55.9602 54.6062 55.7014 56.546C55.7014 56.546 59.3653 56.4949 59.3653 57.3363C59.3653 58.1776 58.9066 73.4139 60.2274 74.9378C61.5482 76.4616 62.3837 76.1457 62.9933 75.3329C63.603 74.5201 65.4124 74.6391 65.6156 75.0455C65.8189 75.4519 66.2645 77.9431 64.969 78.7813C63.1615 79.9509 58.6582 79.9173 58.2518 75.5485C57.8453 71.1797 57.8571 67.4302 56.1683 67.4302C55.5587 67.4302 55.5936 69.5117 55.5936 71.8485C55.5936 74.1853 55.7978 74.789 56.2042 75.2969C56.6106 75.8049 56.509 80.6852 56.2042 80.6852H53.1509C52.8461 80.6852 52.7445 75.8049 53.1509 75.2969C53.5573 74.789 53.7615 74.1853 53.7615 71.8485C53.7615 69.5117 54.0478 67.4302 53.4382 67.4302C51.6058 67.4302 51.8331 70.7845 51.4267 75.1533C51.0203 79.5221 46.8133 79.6362 44.7813 78.925C42.7493 78.2138 43.7354 75.2815 43.9192 74.8659C44.1942 74.2439 45.393 74.7715 46.1463 75.2251C47.0167 75.7492 47.8788 76.354 49.1996 74.8299C50.5204 73.3059 50.6364 58.1781 50.6364 57.3361C50.6364 56.4941 53.9771 56.5458 53.9771 56.5458C54.0616 54.606 54.3351 52.6664 53.9771 50.7266C54.8503 51.2041 55.2997 51.0036 55.7014 50.7266V50.7267ZM54.7674 57.7313C53.7923 57.7313 53.0073 57.9031 53.0073 58.1264V60.8565C53.0073 61.0799 53.7923 61.2516 54.7674 61.2516C55.7425 61.2516 56.5276 61.0799 56.5276 60.8565V58.1264C56.5276 57.9031 55.7425 57.7313 54.7674 57.7313Z" fill="#838383" stroke="#535353" stroke-width="0.188235"/>
<path d="M195.595 75.8203C195.339 75.8979 195.289 76.5287 195.462 77.2044C195.635 77.8802 196.005 78.6008 196.359 79.7473C208.454 116.121 221.682 152.117 234.411 188.273" stroke="url(#paint21_linear_1123_312)" stroke-width="0.329412" stroke-linecap="round"/>
<path fill-rule="evenodd" clip-rule="evenodd" d="M138.745 183.598C172.776 198.641 209.43 195.633 240.346 183.598C239.65 187.111 222.186 208.664 188.159 208.663C154.593 208.661 138.746 186.036 138.746 183.598H138.745Z" fill="url(#paint22_linear_1123_312)" stroke="#5D5D5D" stroke-width="0.235294"/>
<path d="M53.0496 75.082C51.2499 83.3167 54.5836 80.0035 54.702 81.5965L54.8816 195.178" stroke="url(#paint23_linear_1123_312)" stroke-width="0.329412" stroke-linecap="round"/>
<path d="M47.7955 75.8203C48.0516 75.8979 48.1009 76.5287 47.9279 77.2044C47.7549 77.8802 47.385 78.6008 47.0312 79.7473C34.9364 116.121 21.7078 152.117 8.97914 188.273" stroke="url(#paint24_linear_1123_312)" stroke-width="0.329412" stroke-linecap="round"/>
<path d="M61.2512 75.8203C60.9951 75.8979 60.9457 76.5287 61.1187 77.2044C61.2917 77.8802 61.6617 78.6008 62.0155 79.7473C74.1102 116.121 87.3388 152.117 100.067 188.273" stroke="url(#paint25_linear_1123_312)" stroke-width="0.329412" stroke-linecap="round"/>
<path fill-rule="evenodd" clip-rule="evenodd" d="M4.39771 183.598C38.4285 198.641 75.0824 195.633 105.999 183.598C105.303 187.111 87.8385 208.664 53.8113 208.663C20.2457 208.661 4.3989 186.036 4.3989 183.598H4.39771Z" fill="url(#paint26_linear_1123_312)" stroke="#5D5D5D" stroke-width="0.235294"/>
<defs>
<linearGradient id="paint0_linear_1123_312" x1="64.9517" y1="199.446" x2="112.834" y2="221.394" gradientUnits="userSpaceOnUse">
<stop stop-color="#D9D9D9"/>
<stop offset="0.1157" stop-color="#B8B8B8"/>
<stop offset="0.31556" stop-color="#989898"/>
<stop offset="1" stop-color="#646464"/>
</linearGradient>
<linearGradient id="paint1_linear_1123_312" x1="81.416" y1="0.0021676" x2="163.253" y2="0.0021676" gradientUnits="userSpaceOnUse">
<stop stop-color="#878787"/>
<stop offset="0.45" stop-color="#9B9B9B"/>
<stop offset="0.55" stop-color="#9B9B9B"/>
<stop offset="1" stop-color="#878787"/>
</linearGradient>
<linearGradient id="paint2_linear_1123_312" x1="78.7055" y1="0.00151844" x2="164.497" y2="0.00151844" gradientUnits="userSpaceOnUse">
<stop stop-color="#818181"/>
<stop offset="0.45" stop-color="#E6E6E6"/>
<stop offset="0.55" stop-color="#E6E6E6"/>
<stop offset="1" stop-color="#818181"/>
</linearGradient>
<linearGradient id="paint3_linear_1123_312" x1="78.7055" y1="0.00151879" x2="164.772" y2="0.00151879" gradientUnits="userSpaceOnUse">
<stop stop-color="#444444"/>
<stop offset="0.45" stop-color="#A7A7A7"/>
<stop offset="0.55" stop-color="#A7A7A7"/>
<stop offset="1" stop-color="#444444"/>
</linearGradient>
<linearGradient id="paint4_linear_1123_312" x1="84.3355" y1="-0.000630957" x2="158.899" y2="-0.000630957" gradientUnits="userSpaceOnUse">
<stop stop-color="#818181"/>
<stop offset="0.45" stop-color="#E6E6E6"/>
<stop offset="0.55" stop-color="#E6E6E6"/>
<stop offset="1" stop-color="#818181"/>
</linearGradient>
<linearGradient id="paint5_linear_1123_312" x1="84.3355" y1="-0.000647279" x2="159.138" y2="-0.000647279" gradientUnits="userSpaceOnUse">
<stop stop-color="#444444"/>
<stop offset="0.45" stop-color="#A7A7A7"/>
<stop offset="0.55" stop-color="#A7A7A7"/>
<stop offset="1" stop-color="#444444"/>
</linearGradient>
<linearGradient id="paint6_linear_1123_312" x1="103.107" y1="0.000259797" x2="138.458" y2="0.000259797" gradientUnits="userSpaceOnUse">
<stop stop-color="#4C4C4C" stop-opacity="0"/>
<stop offset="0.45" stop-color="#696969"/>
<stop offset="0.55" stop-color="#696969"/>
<stop offset="1" stop-color="#4B4B4B" stop-opacity="0"/>
</linearGradient>
<linearGradient id="paint7_linear_1123_312" x1="-0.000141976" y1="209.626" x2="-0.000141976" y2="210.666" gradientUnits="userSpaceOnUse">
<stop stop-color="#5C5C5C"/>
<stop offset="1" stop-color="#6E6E6E"/>
</linearGradient>
<linearGradient id="paint8_linear_1123_312" x1="68.5371" y1="4.85391" x2="56.1262" y2="4.85391" gradientUnits="userSpaceOnUse">
<stop stop-color="#3D3D3D"/>
<stop offset="1" stop-color="#3D3D3D" stop-opacity="0"/>
</linearGradient>
<linearGradient id="paint9_linear_1123_312" x1="174.933" y1="4.85391" x2="187.344" y2="4.85391" gradientUnits="userSpaceOnUse">
<stop stop-color="#3D3D3D"/>
<stop offset="1" stop-color="#3D3D3D" stop-opacity="0"/>
</linearGradient>
<linearGradient id="paint10_linear_1123_312" x1="120.72" y1="0.00470491" x2="126.617" y2="0.00470491" gradientUnits="userSpaceOnUse">
<stop stop-color="#9E9E9E"/>
<stop offset="0.2" stop-color="#999999"/>
<stop offset="1" stop-color="#6C6C6C"/>
</linearGradient>
<linearGradient id="paint11_linear_1123_312" x1="120.481" y1="0.00044427" x2="126.904" y2="0.00044427" gradientUnits="userSpaceOnUse">
<stop stop-color="#BFBFBF"/>
<stop offset="0.95" stop-color="#828282"/>
<stop offset="1" stop-color="#828282"/>
</linearGradient>
<linearGradient id="paint12_linear_1123_312" x1="116.936" y1="0.000445972" x2="126.892" y2="0.000445972" gradientUnits="userSpaceOnUse">
<stop stop-color="#808080"/>
<stop offset="1" stop-color="#535353"/>
</linearGradient>
<linearGradient id="paint13_linear_1123_312" x1="-0.000141976" y1="209.538" x2="-0.000141976" y2="208.498" gradientUnits="userSpaceOnUse">
<stop stop-color="#5C5C5C"/>
<stop offset="1" stop-color="#6E6E6E"/>
</linearGradient>
<linearGradient id="paint14_linear_1123_312" x1="120.684" y1="0.000345156" x2="127.047" y2="0.000345156" gradientUnits="userSpaceOnUse">
<stop stop-color="#BFBFBF"/>
<stop offset="0.95" stop-color="#828282"/>
<stop offset="1" stop-color="#828282"/>
</linearGradient>
<linearGradient id="paint15_linear_1123_312" x1="120.684" y1="-8.88214" x2="127.047" y2="-8.88214" gradientUnits="userSpaceOnUse">
<stop stop-color="#BFBFBF"/>
<stop offset="0.95" stop-color="#828282"/>
<stop offset="1" stop-color="#828282"/>
</linearGradient>
<linearGradient id="paint16_linear_1123_312" x1="120.684" y1="110.702" x2="127.047" y2="110.702" gradientUnits="userSpaceOnUse">
<stop stop-color="#BFBFBF"/>
<stop offset="0.95" stop-color="#828282"/>
<stop offset="1" stop-color="#828282"/>
</linearGradient>
<radialGradient id="paint17_radial_1123_312" cx="0" cy="0" r="1" gradientUnits="userSpaceOnUse" gradientTransform="translate(120.154 10.5436) rotate(46.2447) scale(7.59963 8.49419)">
<stop stop-color="#DCDCDC"/>
<stop offset="1" stop-color="#434343"/>
</radialGradient>
<linearGradient id="paint18_linear_1123_312" x1="199.302" y1="199.446" x2="247.182" y2="221.394" gradientUnits="userSpaceOnUse">
<stop stop-color="#D9D9D9"/>
<stop offset="0.1157" stop-color="#B8B8B8"/>
<stop offset="0.31556" stop-color="#989898"/>
<stop offset="1" stop-color="#646464"/>
</linearGradient>
<linearGradient id="paint19_linear_1123_312" x1="-0.000123337" y1="156.315" x2="-0.000123337" y2="196.611" gradientUnits="userSpaceOnUse">
<stop stop-color="#999999"/>
<stop offset="1" stop-color="#525252"/>
</linearGradient>
<linearGradient id="paint20_linear_1123_312" x1="103.861" y1="133.571" x2="90.5947" y2="171.625" gradientUnits="userSpaceOnUse">
<stop stop-color="#999999"/>
<stop offset="1" stop-color="#525252"/>
</linearGradient>
<linearGradient id="paint21_linear_1123_312" x1="273.872" y1="133.571" x2="287.139" y2="171.625" gradientUnits="userSpaceOnUse">
<stop stop-color="#999999"/>
<stop offset="1" stop-color="#525252"/>
</linearGradient>
<linearGradient id="paint22_linear_1123_312" x1="187.103" y1="216.514" x2="238.235" y2="218.14" gradientUnits="userSpaceOnUse">
<stop stop-color="#D9D9D9"/>
<stop offset="0.1157" stop-color="#B8B8B8"/>
<stop offset="0.31556" stop-color="#989898"/>
<stop offset="1" stop-color="#646464"/>
</linearGradient>
<linearGradient id="paint23_linear_1123_312" x1="-8.09195e-06" y1="156.315" x2="-8.09195e-06" y2="196.611" gradientUnits="userSpaceOnUse">
<stop stop-color="#999999"/>
<stop offset="1" stop-color="#525252"/>
</linearGradient>
<linearGradient id="paint24_linear_1123_312" x1="-30.4818" y1="133.571" x2="-43.7486" y2="171.625" gradientUnits="userSpaceOnUse">
<stop stop-color="#999999"/>
<stop offset="1" stop-color="#525252"/>
</linearGradient>
<linearGradient id="paint25_linear_1123_312" x1="139.531" y1="133.571" x2="152.798" y2="171.625" gradientUnits="userSpaceOnUse">
<stop stop-color="#999999"/>
<stop offset="1" stop-color="#525252"/>
</linearGradient>
<linearGradient id="paint26_linear_1123_312" x1="52.7602" y1="216.514" x2="103.894" y2="218.14" gradientUnits="userSpaceOnUse">
<stop stop-color="#D9D9D9"/>
<stop offset="0.1157" stop-color="#B8B8B8"/>
<stop offset="0.31556" stop-color="#989898"/>
<stop offset="1" stop-color="#646464"/>
</linearGradient>
</defs>
</svg>
