<svg width="905" height="1035" viewBox="0 0 905 1035" fill="none" xmlns="http://www.w3.org/2000/svg">
<g clip-path="url(#clip0_762_5)">
<path d="M0 80C0 35.8172 35.8172 0 80 0H905V851C905 895.183 869.183 931 825 931H0V80Z" fill="#00A582"/>
<path d="M848.749 21.1751L458.76 409.768C453.611 414.899 449.185 420.707 445.604 427.033L161.714 928.622C161.576 928.866 161.357 929.055 161.094 929.156C159.84 929.639 160.185 931.5 161.529 931.5H825C869.183 931.5 905 895.683 905 851.5V0.5C905 0.223858 904.776 0 904.5 0H900C880.788 0 862.358 7.6143 848.749 21.1751Z" fill="black" stroke="black"/>
<path d="M163.001 925.501L141.596 926.773L107 1025.61C107 1025.61 129.612 1000.11 140.341 981.297C150.892 962.796 163.001 925.501 163.001 925.501Z" fill="#00A582"/>
<path d="M211.764 846.627C195.811 871.874 174.91 913.633 174.91 913.633L163.5 934.5L184.961 860.029L208.413 789.672L231.866 719.316L262.018 652.31L305.572 568.552L349.126 501.546C349.126 501.546 400.492 411.434 442.935 360.833C467.318 331.762 509.941 290.477 509.941 290.477C509.941 290.477 547.149 254.167 570.246 230.171C588.863 210.83 617.151 179.917 617.151 179.917C617.151 179.917 581.183 200.602 560.196 216.77C534.533 236.539 499.89 273.725 499.89 273.725C499.89 273.725 455.268 317.08 429.534 347.432C386.348 398.367 332.375 488.145 332.375 488.145L288.821 558.501L241.917 642.259L211.764 712.615L184.961 789.672L161.509 860.029L135.951 932.872C135.951 932.872 135.836 896.628 134.707 873.43C132.985 838.049 135.859 817.513 128.006 782.971C124.061 765.618 121.505 755.821 114.605 739.418C110.067 728.631 106.775 722.906 101.204 712.615C91.6963 695.052 83.9086 686.624 74.4012 669.061C68.8303 658.77 61 642.259 61 642.259C61 642.259 69.2923 641.123 74.4012 642.259C81.8486 643.914 94.8333 650.792 101.204 654.99C116.731 665.222 128.006 682.462 128.006 682.462V675.762V632.208C128.006 617.816 127.204 609.724 128.006 595.354C129.11 575.586 131.332 564.609 134.707 545.1C136.981 531.952 137.86 524.459 141.407 511.597C146.253 494.029 150.147 484.411 158.159 468.043C166.939 450.105 172.932 437.646 183.951 420.99C192.763 407.671 197.897 403.005 208.413 390.986C220.004 377.738 228.861 368.297 241.917 356.49C256.343 343.444 263.087 338.835 278.77 327.33C295.78 314.851 325.674 300.527 325.674 300.527L318.951 327.33C318.951 327.33 316.451 346.981 316.451 363.99C316.451 380.999 325.674 397.686 325.674 397.686C325.674 397.686 329.959 389.615 332.375 384.285C342.986 360.872 341.528 345.186 349.126 320.629C356.098 298.096 358.272 284.562 369.228 263.674C379.684 243.74 387.763 233.582 402.731 216.77C416.894 200.862 426.2 193.092 442.935 179.917C455.483 170.037 463.095 165.241 476.438 156.464C495.559 143.887 526.693 117.49 526.693 117.49C526.693 117.49 516.915 145.163 515.951 163.165C515.392 173.617 519.992 189.967 519.992 189.967L536.743 163.165C536.743 163.165 544.505 148.627 550.145 139.713C561.618 121.579 567.938 110.777 583.648 96.1589C601.72 79.3416 637.253 62.6558 637.253 62.6558C637.253 62.6558 678.903 39.2558 707.609 29.1528C728.521 21.7928 741.214 19.9694 762.451 14.4902C789.534 7.50273 810.109 6.65633 837.951 3.99023C866.604 1.24651 905.277 -1 905.277 -1L898.576 19.1018C898.576 19.1018 890.998 46.9091 881.825 62.6558C873.391 77.1339 865.809 93.8195 855.451 106.99C842.186 123.858 836.512 133.204 821.451 148.49C803.086 167.13 783.713 178.737 762.451 193.99C745.642 206.049 725.891 215.31 707.609 224.99C687.85 235.452 692.917 232.929 672.951 242.99C659.325 249.857 637.253 250.273 637.253 250.273L643.953 256.974C643.953 256.974 657.754 266.032 668.5 267C681.596 268.179 694.949 267.225 707.609 263.674C717.203 260.983 730.5 256.974 730.5 256.974L771 239.5C771 239.5 768.948 250.25 767 256.974C761.345 276.493 751.395 288.85 744.462 303.878C733.821 326.946 723.564 337.714 707.609 357.483C685.529 384.84 671.034 398.72 643.953 421.138C617.117 443.354 601.71 456.435 570.246 471.393C548.944 481.52 536.159 485.712 513.291 491.495C483.87 498.935 436.234 501.546 436.234 501.546V511.597C436.234 511.597 444.085 516.447 449.635 518.297C462.048 522.435 470.367 523.99 483.451 523.99C504.385 523.99 515.962 520.816 536.743 518.297C549.989 516.692 570.246 511.597 570.246 511.597C570.246 511.597 564.875 528.247 560.196 538.399C547.27 566.443 540.292 579.758 519.951 602.99C497.394 628.754 472.472 648.327 445.951 669.99C427.103 685.386 419.533 690.742 399.451 704.49C381.483 716.792 372.221 721.349 352.951 731.49C335.315 740.771 323.592 741.288 305.572 749.468C294.916 754.306 278.77 762.87 278.77 762.87C278.77 762.87 303.082 764.853 318.451 762.87C337.008 760.475 364.451 749.468 364.451 749.468C364.451 749.468 357.656 764.017 350.451 770.99C332.833 788.042 305.938 787.256 278.77 798.49C262.685 805.142 251.188 808.717 236.951 818.99L236.756 819.131C225.084 827.553 222.753 829.235 211.764 846.627Z" fill="white" stroke="white" stroke-width="6.70061"/>
</g>
<defs>
<clipPath id="clip0_762_5">
<path d="M0 0H905V1035H0V0Z" fill="white"/>
</clipPath>
</defs>
</svg>
