<svg width="40" height="40" viewBox="0 0 40 40" fill="none" xmlns="http://www.w3.org/2000/svg">
<g clip-path="url(#clip0_1_721)">
<path d="M0.853564 19.7606C0.852627 23.1214 1.73763 26.403 3.42044 29.2954L0.692627 39.1778L10.8851 36.5261C13.7042 38.0489 16.8628 38.8468 20.0726 38.847H20.0811C30.6772 38.847 39.3026 30.2915 39.3072 19.7757C39.3092 14.68 37.3111 9.88839 33.6808 6.28342C30.0511 2.67877 25.2237 0.692572 20.0803 0.690247C9.48294 0.690247 0.858096 9.24529 0.853721 19.7606" fill="url(#paint0_linear_1_721)"/>
<path d="M0.167188 19.7544C0.166094 23.2361 1.08281 26.635 2.82562 29.631L0 39.8678L10.558 37.1209C13.467 38.6947 16.7423 39.5245 20.0752 39.5257H20.0837C31.06 39.5257 39.9953 30.6625 40 19.7702C40.0019 14.4915 37.9319 9.5276 34.1719 5.79349C30.4114 2.05984 25.4114 0.00217054 20.0837 0C9.10562 0 0.171563 8.86202 0.167188 19.7544ZM6.45469 29.115L6.06047 28.4941C4.40328 25.8795 3.52859 22.8581 3.52984 19.7557C3.53344 10.7022 10.9591 3.33643 20.09 3.33643C24.5119 3.33829 28.6675 5.04868 31.7931 8.15194C34.9186 11.2555 36.6384 15.3811 36.6373 19.769C36.6333 28.8225 29.2075 36.1891 20.0837 36.1891H20.0772C17.1064 36.1876 14.1928 35.396 11.6519 33.9L11.0472 33.5442L4.78188 35.1741L6.45469 29.1149V29.115Z" fill="url(#paint1_linear_1_721)"/>
<path d="M14.5541 11.3205C14.1812 10.4984 13.7889 10.4818 13.4344 10.4674C13.1441 10.455 12.8122 10.4559 12.4806 10.4559C12.1487 10.4559 11.6095 10.5798 11.1537 11.0736C10.6975 11.5678 9.41187 12.7622 9.41187 15.1915C9.41187 17.621 11.1951 19.9688 11.4437 20.2985C11.6926 20.6277 14.8864 25.7725 19.9445 27.7517C24.1483 29.3965 25.0037 29.0694 25.9161 28.9869C26.8286 28.9047 28.8605 27.7928 29.275 26.6398C29.6898 25.4869 29.6898 24.4987 29.5655 24.2922C29.4411 24.0864 29.1092 23.9629 28.6116 23.716C28.1137 23.4691 25.6672 22.2745 25.2111 22.1097C24.7548 21.945 24.4231 21.8629 24.0912 22.3573C23.7594 22.8509 22.8064 23.9629 22.5159 24.2922C22.2258 24.6222 21.9353 24.6633 21.4378 24.4164C20.9398 24.1686 19.3372 23.6478 17.4358 21.9658C15.9564 20.657 14.9576 19.0407 14.6673 18.5463C14.377 18.0526 14.6362 17.785 14.8858 17.539C15.1094 17.3177 15.3836 16.9624 15.6326 16.6742C15.8808 16.3858 15.9636 16.1801 16.1295 15.8508C16.2956 15.5212 16.2125 15.2328 16.0883 14.9858C15.9636 14.7388 14.9966 12.2968 14.5541 11.3205Z" fill="white"/>
</g>
<defs>
<linearGradient id="paint0_linear_1_721" x1="1931.42" y1="3849.45" x2="1931.42" y2="0.690247" gradientUnits="userSpaceOnUse">
<stop stop-color="#1FAF38"/>
<stop offset="1" stop-color="#60D669"/>
</linearGradient>
<linearGradient id="paint1_linear_1_721" x1="2000" y1="3986.78" x2="2000" y2="0" gradientUnits="userSpaceOnUse">
<stop stop-color="#F9F9F9"/>
<stop offset="1" stop-color="white"/>
</linearGradient>
<clipPath id="clip0_1_721">
<rect width="40" height="40" fill="white"/>
</clipPath>
</defs>
</svg>
